<svg width="56" height="56" viewBox="0 0 56 56" fill="none" xmlns="http://www.w3.org/2000/svg">
<path fill-rule="evenodd" clip-rule="evenodd" d="M27.5568 28.1756C27.5568 23.8952 31.0267 20.4252 35.3071 20.4252C39.5875 20.4252 43.0575 23.8952 43.0575 28.1756C43.0575 32.456 39.5875 35.926 35.3071 35.926C31.0267 35.926 27.5568 32.456 27.5568 28.1756Z" fill="#1ABCFE"/>
<path fill-rule="evenodd" clip-rule="evenodd" d="M12.056 43.6764C12.056 39.396 15.526 35.926 19.8064 35.926H27.5568V43.6764C27.5568 47.9568 24.0868 51.4267 19.8064 51.4267C15.526 51.4267 12.056 47.9568 12.056 43.6764Z" fill="#0ACF83"/>
<path fill-rule="evenodd" clip-rule="evenodd" d="M27.5568 4.9245V20.4252H35.3071C39.5875 20.4252 43.0575 16.9553 43.0575 12.6749C43.0575 8.39446 39.5875 4.9245 35.3071 4.9245H27.5568Z" fill="#FF7262"/>
<path fill-rule="evenodd" clip-rule="evenodd" d="M12.056 12.6749C12.056 16.9553 15.526 20.4253 19.8064 20.4253H27.5568V4.92453H19.8064C15.526 4.92453 12.056 8.39449 12.056 12.6749Z" fill="#F24E1E"/>
<path fill-rule="evenodd" clip-rule="evenodd" d="M12.056 28.1756C12.056 32.456 15.526 35.926 19.8064 35.926H27.5568V20.4252H19.8064C15.526 20.4252 12.056 23.8952 12.056 28.1756Z" fill="#A259FF"/>
</svg>
