<svg width="270" height="54" viewBox="0 0 270 54" fill="none" xmlns="http://www.w3.org/2000/svg">
<path d="M69.8816 14.4214V45.4148H64.0434V14.4214H54.5011V9.46043H79.3748V14.4214H69.8816Z" fill="white"/>
<path d="M84.5998 25.8413C85.1722 24.3023 85.9244 23.1644 86.8566 22.4276C87.8051 21.6908 88.9744 21.3224 90.3644 21.3224C91.1167 21.3224 91.8526 21.4125 92.5721 21.5926C93.3081 21.7727 94.0276 22.0347 94.7308 22.3785L92.8175 26.8973C92.3596 26.5699 91.8608 26.3325 91.3211 26.1851C90.7978 26.0214 90.2091 25.9395 89.5549 25.9395C87.7887 25.9395 86.5213 26.6518 85.7527 28.0762C84.9841 29.4842 84.5998 31.8583 84.5998 35.1983V45.4148H79.2767V22.0838H84.5998V25.8413Z" fill="white"/>
<path d="M119.654 45.4148H114.331V42.3941C113.382 43.7366 112.27 44.7354 110.994 45.3903C109.735 46.0452 108.288 46.3727 106.653 46.3727C103.365 46.3727 100.773 45.2511 98.8764 43.0081C96.9958 40.7486 96.0555 37.6624 96.0555 33.7493C96.0555 30.0327 97.0203 27.0365 98.95 24.7607C100.88 22.4685 103.398 21.3224 106.505 21.3224C108.402 21.3224 110.021 21.7236 111.362 22.5258C112.72 23.3117 113.709 24.4496 114.331 25.9395V22.1329H119.654V45.4148ZM114.478 33.7002C114.478 31.2934 113.914 29.4187 112.785 28.0762C111.673 26.7336 110.111 26.0623 108.1 26.0623C106.088 26.0623 104.502 26.7582 103.341 28.1499C102.196 29.5252 101.624 31.4408 101.624 33.8967C101.624 36.3689 102.18 38.2764 103.292 39.6189C104.404 40.9615 105.974 41.6328 108.002 41.6328C109.915 41.6328 111.469 40.9042 112.662 39.447C113.873 37.9898 114.478 36.0742 114.478 33.7002Z" fill="white"/>
<path d="M135.181 46.8147L122.99 22.1329H128.803L133.881 33.8475C134.045 34.2077 134.241 34.748 134.47 35.4684C134.699 36.1888 134.936 37.0484 135.181 38.0471C135.345 37.3431 135.533 36.6473 135.746 35.9596C135.974 35.2556 136.244 34.5516 136.555 33.8475L141.608 22.1329H147.397L135.181 46.8147Z" fill="white"/>
<path d="M173.154 34.5598H154.56C154.691 36.7373 155.337 38.4401 156.498 39.668C157.659 40.8796 159.205 41.4854 161.134 41.4854C162.852 41.4854 164.282 41.1252 165.427 40.4048C166.572 39.6844 167.569 38.5219 168.42 36.9174L172.909 39.4224C171.601 41.7637 169.982 43.5074 168.052 44.6535C166.122 45.7996 163.857 46.3727 161.257 46.3727C157.528 46.3727 154.56 45.2347 152.353 42.9589C150.145 40.6831 149.041 37.646 149.041 33.8475C149.041 30.1964 150.178 27.2002 152.451 24.8589C154.74 22.5013 157.676 21.3224 161.257 21.3224C165.002 21.3224 167.921 22.3949 170.014 24.5397C172.108 26.6845 173.154 29.6889 173.154 33.5528V34.5598ZM167.635 30.9741C167.422 29.3041 166.785 28.0352 165.722 27.1675C164.659 26.2834 163.203 25.8413 161.355 25.8413C159.605 25.8413 158.199 26.267 157.136 27.1184C156.073 27.9698 155.329 29.255 154.904 30.9741H167.635Z" fill="white"/>
<path d="M178.968 45.4148V7.34836H184.291V45.4148H178.968Z" fill="white"/>
<path d="M192.165 45.4148V7.34836H197.488V45.4148H192.165Z" fill="white"/>
<path d="M204.651 12.0637C204.651 11.1632 204.978 10.3855 205.632 9.73058C206.303 9.07568 207.096 8.74822 208.012 8.74822C208.96 8.74822 209.745 9.06749 210.367 9.70602C211.005 10.3282 211.323 11.1141 211.323 12.0637C211.323 13.0133 211.005 13.8156 210.367 14.4705C209.729 15.109 208.944 15.4283 208.012 15.4283C207.096 15.4283 206.303 15.1008 205.632 14.4459C204.978 13.7746 204.651 12.9806 204.651 12.0637ZM205.363 45.4148V22.1329H210.686V45.4148H205.363Z" fill="white"/>
<path d="M240.196 45.4148H234.873V42.3941C233.924 43.7366 232.812 44.7354 231.536 45.3903C230.277 46.0452 228.83 46.3727 227.195 46.3727C223.907 46.3727 221.315 45.2511 219.418 43.0081C217.538 40.7486 216.597 37.6624 216.597 33.7493C216.597 30.0327 217.562 27.0365 219.492 24.7607C221.422 22.4685 223.94 21.3224 227.047 21.3224C228.944 21.3224 230.563 21.7236 231.904 22.5258C233.262 23.3117 234.251 24.4496 234.873 25.9395V22.1329H240.196V45.4148ZM235.02 33.7002C235.02 31.2934 234.455 29.4187 233.327 28.0762C232.215 26.7336 230.653 26.0623 228.642 26.0623C226.63 26.0623 225.044 26.7582 223.883 28.1499C222.738 29.5252 222.166 31.4408 222.166 33.8967C222.166 36.3689 222.722 38.2764 223.834 39.6189C224.946 40.9615 226.516 41.6328 228.544 41.6328C230.457 41.6328 232.011 40.9042 233.204 39.447C234.415 37.9898 235.02 36.0742 235.02 33.7002Z" fill="white"/>
<path d="M247.555 45.4148V22.1329H252.559V25.9395C253.622 24.335 254.873 23.1644 256.312 22.4276C257.751 21.6908 259.501 21.3224 261.561 21.3224C263.295 21.3224 264.767 21.6008 265.977 22.1575C267.203 22.6977 268.16 23.5082 268.847 24.5888C269.256 25.2273 269.55 25.9723 269.73 26.8237C269.91 27.675 270 29.165 270 31.2934V45.4148H264.628V33.4546C264.628 30.3929 264.252 28.3627 263.499 27.364C262.763 26.3489 261.447 25.8413 259.55 25.8413C258.307 25.8413 257.195 26.0705 256.214 26.529C255.249 26.9874 254.489 27.6341 253.933 28.4691C253.54 29.0258 253.262 29.7462 253.099 30.6303C252.951 31.4981 252.878 32.8897 252.878 34.8053V45.4148H247.555Z" fill="white"/>
<path d="M16.665 38.5938L23.4919 45.3238L30.3187 38.5938L23.4919 31.8639L16.665 38.5938ZM23.4919 5.93247V5.94259C21.5379 5.94259 19.584 6.67799 18.0954 8.14543L18.0886 8.13868C16.6034 9.60611 15.8574 11.5357 15.8574 13.4653C15.8574 15.3983 16.6 17.3245 18.0817 18.7852H18.092L23.4919 24.105L28.8883 18.7852H28.8986C30.3906 17.3144 31.1366 15.3881 31.1366 13.4653H31.1263C31.1263 11.5391 30.3803 9.61286 28.8918 8.14543C27.3929 6.67125 25.439 5.93247 23.4919 5.93247ZM34.254 42.4732L25.4595 51.1429L23.4919 53.0826L21.5242 51.1429L12.7298 42.4732L3.93527 51.1429L0 47.2635L19.56 27.9844L14.1636 22.6646L14.1704 22.6578C11.5868 20.1143 10.2967 16.7847 10.2967 13.4653C10.2967 10.1425 11.5868 6.8163 14.1636 4.27613V4.26938C16.7403 1.7292 20.1178 0.457428 23.4919 0.457428V0.467548C26.8728 0.467548 30.2537 1.73595 32.8236 4.26938C35.4004 6.80956 36.687 10.1391 36.687 13.4687H36.6768C36.6768 16.7948 35.3901 20.121 32.8168 22.6612L32.8236 22.668L27.4272 27.9844L46.9838 47.2635L43.0485 51.1429L34.254 42.4732Z" fill="white"/>
</svg>
